# File created by Blade
# Date/Time:  Tue Sep 30 19:28:49 2014
#---------------------------------------------------------
:version 1.10
:name HOM
:units
  mass 1.0
  length 1.000000
  angle deg
:documentation
     Acclaim Skeleton File
:root
   axis xyz
   order TX TY TZ RX RY RZ
   position 0.000000 0.000000 0.000000
   orientation 0 0 0
:bonedata
   begin
      id 1
      name RightUpLeg_dum
      direction -1.000000 0.000000 0.000000
      length 3.766986
      axis 0.0 0.0 0.0 xyz
   end
   begin
      id 2
      name LeftUpLeg_dum
      direction 1.000000 0.000000 0.000000
      length 3.766986
      axis 0.0 0.0 0.0 xyz
   end
   begin
      id 3
      name Spine_dum
      direction 0.000000 1.000000 0.000000
      length 7.779697
      axis 0.0 0.0 0.0 xyz
   end
   begin
      id 4
      name RightUpLeg
      direction 0.000000 -1.000000 0.000000
      length 18.017682
      axis 0.0 0.0 0.0 xyz
      dof rx ry rz
   end
   begin
      id 5
      name RightLeg
      direction 0.000000 -1.000000 0.000000
      length 16.881075
      axis 0.0 0.0 0.0 xyz
      dof rx ry rz
   end
   begin
      id 6
      name RightFoot
      direction 0.000000 -0.258819 0.965926
      length 5.770812
      axis 15.0 0.0 0.0 xyz
      dof rx ry rz
   end
   begin
      id 7
      name RightToeBase
      direction 0.000000 0.000000 1.000000
      length 2.952750
      axis 0.0 0.0 0.0 xyz
      dof rx ry rz
   end
   begin
      id 8
      name LeftUpLeg
      direction 0.000000 -1.000000 0.000000
      length 18.017682
      axis 0.0 0.0 0.0 xyz
      dof rx ry rz
   end
   begin
      id 9
      name LeftLeg
      direction 0.000000 -1.000000 0.000000
      length 16.881075
      axis 0.0 0.0 0.0 xyz
      dof rx ry rz
   end
   begin
      id 10
      name LeftFoot
      direction 0.000000 -0.258819 0.965926
      length 5.770812
      axis 15.0 0.0 0.0 xyz
      dof rx ry rz
   end
   begin
      id 11
      name LeftToeBase
      direction 0.000000 0.000000 1.000000
      length 2.952750
      axis 0.0 0.0 0.0 xyz
      dof rx ry rz
   end
   begin
      id 12
      name Spine
      direction 0.000000 1.000000 0.000000
      length 0.000000
      axis 0.0 0.0 0.0 xyz
      dof rx ry rz
   end
   begin
      id 13
      name Spine_dum1
      direction 0.000000 1.000000 0.000000
      length 10.941760
      axis 0.0 0.0 0.0 xyz
   end
   begin
      id 14
      name Spine_dum2
      direction 0.000000 1.000000 0.000000
      length 10.941760
      axis 0.0 0.0 0.0 xyz
   end
   begin
      id 15
      name Spine_dum3
      direction 0.000000 1.000000 0.000000
      length 16.646042
      axis 0.0 0.0 0.0 xyz
   end
   begin
      id 16
      name RightShoulder
      direction -1.000000 0.000000 0.000000
      length 7.708937
      axis 0.0 0.0 90.0 xyz
      dof rx ry rz
   end
   begin
      id 17
      name RightArm
      direction -1.000000 0.000000 0.000000
      length 11.521345
      axis 0.0 0.0 90.0 xyz
      dof rx ry rz
   end
   begin
      id 18
      name RightForeArm
      direction -1.000000 0.000000 0.000000
      length 10.175898
      axis 0.0 0.0 90.0 xyz
      dof ry rz rx
   end
   begin
      id 19
      name RightHand
      direction -1.000000 0.000000 0.000000
      length 0.000000
      axis 0.0 0.0 90.0 xyz
      dof rx ry rz
   end
   begin
      id 20
      name RightHand_dum1
      direction -1.000000 0.000000 0.000000
      length 3.937000
      axis 0.0 0.0 90.0 xyz
   end
   begin
      id 21
      name RightHand_dum2
      direction 0.000000 0.000000 0.000000
      length 0.000000
      axis 0.0 0.0 90.0 xyz
   end
   begin
      id 22
      name RightHandThumb1
      direction 0.000000 0.000000 1.000000
      length 3.937000
      axis 0.0 0.0 90.0 xyz
      dof rx rz ry
   end
   begin
      id 23
      name LeftShoulder
      direction 1.000000 0.000000 0.000000
      length 7.708937
      axis 0.0 0.0 -90.0 xyz
      dof rx ry rz
   end
   begin
      id 24
      name LeftArm
      direction 1.000000 0.000000 0.000000
      length 11.521345
      axis 0.0 0.0 -90.0 xyz
      dof rx ry rz
   end
   begin
      id 25
      name LeftForeArm
      direction 1.000000 0.000000 0.000000
      length 10.175898
      axis 0.0 0.0 -90.0 xyz
      dof ry rz rx
   end
   begin
      id 26
      name LeftHand
      direction 1.000000 0.000000 0.000000
      length 0.000000
      axis 0.0 0.0 -90.0 xyz
      dof rx ry rz
   end
   begin
      id 27
      name LeftHand_dum1
      direction 1.000000 0.000000 0.000000
      length 3.937000
      axis 0.0 0.0 -90.0 xyz
   end
   begin
      id 28
      name LeftHand_dum2
      direction 0.000000 0.000000 0.000000
      length 0.000000
      axis 0.0 0.0 -90.0 xyz
   end
   begin
      id 29
      name LeftHandThumb1
      direction 0.000000 0.000000 1.000000
      length 3.937000
      axis 0.0 0.0 -90.0 xyz
      dof rx rz ry
   end
   begin
      id 30
      name Head
      direction 0.000000 1.000000 0.000000
      length 4.527550
      axis 0.0 0.0 0.0 xyz
      dof rx ry rz
   end
:hierarchy
   begin
      root RightUpLeg_dum LeftUpLeg_dum Spine_dum
      RightUpLeg_dum RightUpLeg
      LeftUpLeg_dum LeftUpLeg
      Spine_dum Spine
      RightUpLeg RightLeg
      RightLeg RightFoot
      RightFoot RightToeBase
      LeftUpLeg LeftLeg
      LeftLeg LeftFoot
      LeftFoot LeftToeBase
      Spine Spine_dum1 Spine_dum2 Spine_dum3
      Spine_dum1 RightShoulder
      Spine_dum2 LeftShoulder
      Spine_dum3 Head
      RightShoulder RightArm
      RightArm RightForeArm
      RightForeArm RightHand
      RightHand RightHand_dum1 RightHand_dum2
      RightHand_dum2 RightHandThumb1
      LeftShoulder LeftArm
      LeftArm LeftForeArm
      LeftForeArm LeftHand
      LeftHand LeftHand_dum1 LeftHand_dum2
      LeftHand_dum2 LeftHandThumb1
   end

# File created by Blade
# Date/Time:  Mon Sep 22 15:50:36 2014
# Frame Rate: 120.000 fps
#------------------------------------------------------
:FULLY-SPECIFIED
:DEGREES
145
root 2.674238 36.971618 2.994827 -3.154532 -8.802834 1.895792
RightUpLeg 9.783069 -2.100975 -4.938993
RightLeg -4.718792 -0.000000 0.000000
RightFoot -11.918878 -13.535759 15.005760
RightToeBase 14.802313 -0.000000 -0.000000
LeftUpLeg 10.702346 5.583798 0.442700
LeftLeg -3.005217 -0.000000 0.000000
LeftFoot -11.460795 15.672268 -17.218367
LeftToeBase 9.423686 -0.000000 -0.000000
Spine 2.187458 -12.698999 -2.223021
RightShoulder 4.654863 -27.831446 -10.051275
RightArm 31.806959 -31.384671 56.793459
RightForeArm 14.891785 -0.000000 32.568787
RightHand 2.001735 -0.000000 -0.784195
RightHandThumb1 -24.326973 -0.000000 -32.862282
LeftShoulder -11.713398 30.763657 2.838902
LeftArm 74.788270 -0.875138 -89.027849
LeftForeArm -23.993819 -0.000000 144.515605
LeftHand -6.211551 -0.000000 -5.163866
LeftHandThumb1 -26.253704 0.000000 33.147579
Head -0.105283 22.086610 5.627817
146
root 2.672778 36.972149 2.995657 -3.120417 -8.879025 1.910596
RightUpLeg 9.730950 -2.102464 -4.956490
RightLeg -4.715873 -0.000000 0.000000
RightFoot -11.901237 -13.453083 14.994126
RightToeBase 14.833019 -0.000000 -0.000000
LeftUpLeg 10.671609 5.640831 0.435357
LeftLeg -2.995678 -0.000000 0.000000
LeftFoot -11.461063 15.656644 -17.257970
LeftToeBase 9.406958 -0.000000 -0.000000
Spine 2.146341 -12.516438 -2.245825
RightShoulder 4.691205 -27.780844 -10.173299
RightArm 31.577292 -31.302082 57.094342
RightForeArm 14.986741 -0.000000 32.247932
RightHand 1.987108 -0.000000 -0.767544
RightHandThumb1 -24.326973 -0.000000 -32.862282
LeftShoulder -11.823193 30.824707 2.574894
LeftArm 74.681911 -0.697838 -88.885434
LeftForeArm -24.326176 -0.000000 144.527045
LeftHand -6.162040 -0.000000 -5.718118
LeftHandThumb1 -26.253704 0.000000 33.147579
Head -0.078998 21.905533 5.567752
147
root 2.670045 36.972220 2.997697 -3.087424 -8.948330 1.918398
RightUpLeg 9.686716 -2.077245 -4.959477
RightLeg -4.717358 -0.000000 0.000000
RightFoot -11.891920 -13.429007 14.970698
RightToeBase 14.856332 -0.000000 -0.000000
LeftUpLeg 10.645851 5.712608 0.433351
LeftLeg -2.989154 -0.000000 0.000000
LeftFoot -11.466985 15.651889 -17.282384
LeftToeBase 9.438871 -0.000000 -0.000000
Spine 2.100090 -12.345615 -2.263936
RightShoulder 4.732488 -27.782091 -10.307467
RightArm 31.422612 -31.211679 57.358548
RightForeArm 15.098765 0.000000 31.930961
RightHand 1.967213 0.000000 -0.829832
RightHandThumb1 -24.326973 -0.000000 -32.862282
LeftShoulder -11.914652 30.838064 2.366296
LeftArm 74.532019 -0.502543 -88.784559
LeftForeArm -24.633870 0.000000 144.498505
LeftHand -6.031794 -0.000000 -6.024639
LeftHandThumb1 -26.253704 0.000000 33.147579
Head -0.028525 21.749145 5.552110
148
root 2.667776 36.972514 2.997987 -3.037402 -9.024203 1.915803
RightUpLeg 9.621154 -2.017965 -4.949062
RightLeg -4.713876 -0.000000 0.000000
RightFoot -11.874781 -13.422578 14.948628
RightToeBase 14.836663 -0.000000 -0.000000
LeftUpLeg 10.611086 5.796128 0.441202
LeftLeg -2.999397 -0.000000 0.000000
LeftFoot -11.459972 15.637162 -17.292309
LeftToeBase 9.384279 -0.000000 -0.000000
Spine 2.026512 -12.170658 -2.255437
RightShoulder 4.793643 -27.763651 -10.442741
RightArm 31.241449 -31.127600 57.611203
RightForeArm 15.197776 0.000000 31.626332
RightHand 1.978400 0.000000 -0.819466
RightHandThumb1 -24.326973 -0.000000 -32.862282
LeftShoulder -11.991669 30.811376 2.176648
LeftArm 74.356470 -0.316413 -88.585299
LeftForeArm -24.902135 -0.000000 144.429317
LeftHand -5.910321 -0.000000 -6.028794
LeftHandThumb1 -26.253704 0.000000 33.147579
Head 0.053190 21.562136 5.484245
149
root 2.664090 36.973700 2.999461 -2.978969 -9.075255 1.905206
RightUpLeg 9.555436 -1.976785 -4.929912
RightLeg -4.707903 -0.000000 0.000000
RightFoot -11.866599 -13.407208 14.969999
RightToeBase 14.819156 -0.000000 -0.000000
LeftUpLeg 10.568431 5.866712 0.457124
LeftLeg -3.012472 -0.000000 0.000000
LeftFoot -11.457021 15.621441 -17.314479
LeftToeBase 9.425331 -0.000000 -0.000000
Spine 1.928221 -12.008085 -2.225032
RightShoulder 4.828869 -27.718572 -10.574310
RightArm 31.055005 -31.099750 57.858735
RightForeArm 15.238412 0.000000 31.330307
RightHand 1.960603 -0.000000 -0.814655
RightHandThumb1 -24.326973 -0.000000 -32.862282
LeftShoulder -12.055977 30.744169 1.996563
LeftArm 74.146726 -0.134979 -88.353207
LeftForeArm -25.074109 0.000000 144.337092
LeftHand -5.855776 0.000000 -6.006345
LeftHandThumb1 -26.253704 0.000000 33.147579
Head 0.169676 21.385002 5.375703
150
root 2.658199 36.974147 3.000730 -2.925095 -9.125936 1.892035
RightUpLeg 9.535675 -1.863713 -4.896095
RightLeg -4.786724 -0.000000 0.000000
RightFoot -11.813878 -13.480525 14.954097
RightToeBase 14.777615 -0.000000 -0.000000
LeftUpLeg 10.531742 5.923486 0.476478
LeftLeg -3.018978 -0.000000 0.000000
LeftFoot -11.418181 15.618241 -17.244509
LeftToeBase 9.325155 -0.000000 -0.000000
Spine 1.847056 -11.839565 -2.223747
RightShoulder 4.825952 -27.724725 -10.646460
RightArm 30.955940 -31.075888 57.996523
RightForeArm 15.271540 -0.000000 31.061524
RightHand 1.962951 -0.000000 -0.766566
RightHandThumb1 -24.326973 -0.000000 -32.862282
LeftShoulder -12.133922 30.626844 1.875816
LeftArm 73.882307 0.093519 -88.030463
LeftForeArm -25.278155 -0.000000 144.212868
LeftHand -5.777525 -0.000000 -5.622677
LeftHandThumb1 -26.253704 0.000000 33.147579
Head 0.261418 21.175876 5.298026
151
root 2.656326 36.974714 3.002989 -2.878464 -9.164772 1.906557
RightUpLeg 9.452676 -1.918364 -4.911840
RightLeg -4.726726 -0.000000 0.000000
RightFoot -11.838172 -13.415298 14.915277
RightToeBase 14.812058 -0.000000 -0.000000
LeftUpLeg 10.490270 5.976791 0.466135
LeftLeg -3.022113 -0.000000 0.000000
LeftFoot -11.442683 15.603196 -17.340666
LeftToeBase 9.323883 -0.000000 -0.000000
Spine 1.758405 -11.674092 -2.237444
RightShoulder 4.805184 -27.730022 -10.706714
RightArm 30.880654 -31.066053 58.096857
RightForeArm 15.322510 -0.000000 30.809789
RightHand 1.892687 0.000000 -0.765462
RightHandThumb1 -24.326973 -0.000000 -32.862282
LeftShoulder -12.184205 30.523815 1.764265
LeftArm 73.636839 0.278346 -87.671698
LeftForeArm -25.492690 -0.000000 144.076139
LeftHand -5.704346 -0.000000 -5.317466
LeftHandThumb1 -26.253704 0.000000 33.147579
Head 0.395043 21.049501 5.235896
152
root 2.649166 36.975431 3.002444 -2.809616 -9.198110 1.893646
RightUpLeg 9.416944 -1.809237 -4.876209
RightLeg -4.802665 -0.000000 0.000000
RightFoot -11.812790 -13.473827 14.965467
RightToeBase 14.853948 -0.000000 -0.000000
LeftUpLeg 10.425405 6.016773 0.483499
LeftLeg -3.014505 -0.000000 0.000000
LeftFoot -11.402917 15.603546 -17.257704
LeftToeBase 9.294213 -0.000000 -0.000000
Spine 1.654230 -11.515380 -2.231759
RightShoulder 4.774815 -27.702178 -10.728265
RightArm 30.746127 -31.059258 58.199054
RightForeArm 15.260872 -0.000000 30.620095
RightHand 1.856460 -0.000000 -0.618433
RightHandThumb1 -24.326973 -0.000000 -32.862282
LeftShoulder -12.225346 30.474638 1.702112
LeftArm 73.384575 0.462325 -87.323535
LeftForeArm -25.754672 -0.000000 143.951020
LeftHand -5.713595 -0.000000 -5.218540
LeftHandThumb1 -26.253704 0.000000 33.147579
Head 0.512127 20.928982 5.192254
153
root 2.642921 36.976530 3.002821 -2.740869 -9.219887 1.887042
RightUpLeg 9.356783 -1.789099 -4.857425
RightLeg -4.822005 -0.000000 0.000000
RightFoot -11.786618 -13.480655 14.952836
RightToeBase 14.829815 -0.000000 -0.000000
LeftUpLeg 10.357947 6.065512 0.497255
LeftLeg -3.006516 -0.000000 0.000000
LeftFoot -11.389763 15.585925 -17.254323
LeftToeBase 9.292948 -0.000000 -0.000000
Spine 1.535502 -11.362807 -2.224600
RightShoulder 4.746775 -27.675795 -10.742898
RightArm 30.604968 -31.069003 58.275193
RightForeArm 15.280948 -0.000000 30.473602
RightHand 1.768135 -0.000000 -0.537366
RightHandThumb1 -24.326973 -0.000000 -32.862282
LeftShoulder -12.248369 30.466066 1.646378
LeftArm 73.120605 0.601130 -86.939027
LeftForeArm -25.943307 -0.000000 143.816553
LeftHand -5.662269 -0.000000 -5.046035
LeftHandThumb1 -26.253704 0.000000 33.147579
Head 0.671604 20.707712 5.059529
154
root 2.637455 36.977008 3.003041 -2.675928 -9.240495 1.885848
RightUpLeg 9.289640 -1.787847 -4.844948
RightLeg -4.825686 -0.000000 0.000000
RightFoot -11.758823 -13.475557 14.914900
RightToeBase 14.781312 -0.000000 -0.000000
LeftUpLeg 10.299940 6.094166 0.502446
LeftLeg -3.021587 -0.000000 0.000000
LeftFoot -11.418673 15.589540 -17.347552
LeftToeBase 9.404693 -0.000000 -0.000000
Spine 1.425694 -11.240258 -2.223018
RightShoulder 4.723192 -27.648680 -10.742339
RightArm 30.473873 -31.048264 58.350329
RightForeArm 15.232496 0.000000 30.344231
RightHand 1.754828 -0.000000 -0.445504
RightHandThumb1 -24.326973 -0.000000 -32.862282
LeftShoulder -12.287490 30.457139 1.590059
LeftArm 72.850785 0.761542 -86.545482
LeftForeArm -26.221858 -0.000000 143.682858
LeftHand -5.523017 -0.000000 -4.912932
LeftHandThumb1 -26.253704 0.000000 33.147579
Head 0.807404 20.629387 4.989122
155
root 2.633127 36.976963 3.001286 -2.605041 -9.268841 1.885127
RightUpLeg 9.214336 -1.768665 -4.834583
RightLeg -4.830907 -0.000000 0.000000
RightFoot -11.752134 -13.472676 14.900990
RightToeBase 14.802440 -0.000000 -0.000000
LeftUpLeg 10.231592 6.119031 0.501418
LeftLeg -3.019737 -0.000000 0.000000
LeftFoot -11.375631 15.595407 -17.270935
LeftToeBase 9.291839 -0.000000 -0.000000
Spine 1.313453 -11.138623 -2.213180
RightShoulder 4.726829 -27.601854 -10.753161
RightArm 30.355695 -31.046219 58.395087
RightForeArm 15.117529 0.000000 30.225743
RightHand 1.713607 0.000000 -0.353908
RightHandThumb1 -24.326973 -0.000000 -32.862282
LeftShoulder -12.351094 30.466551 1.554426
LeftArm 72.533600 0.865230 -86.252541
LeftForeArm -26.507828 0.000000 143.551812
LeftHand -5.548954 -0.000000 -4.639989
LeftHandThumb1 -26.253704 0.000000 33.147579
Head 0.960239 20.608524 4.871529
156
root 2.630957 36.976937 3.002373 -2.557853 -9.296500 1.896027
RightUpLeg 9.125667 -1.862453 -4.849448
RightLeg -4.756534 -0.000000 0.000000
RightFoot -11.774747 -13.373525 14.843213
RightToeBase 14.808433 -0.000000 -0.000000
LeftUpLeg 10.196356 6.138961 0.488115
LeftLeg -3.042095 -0.000000 0.000000
LeftFoot -11.402296 15.620017 -17.340894
LeftToeBase 9.405137 -0.000000 -0.000000
Spine 1.221804 -11.052422 -2.209388
RightShoulder 4.735064 -27.564547 -10.768786
RightArm 30.248116 -31.023600 58.449444
RightForeArm 15.038777 -0.000000 30.122336
RightHand 1.791712 0.000000 -0.356475
RightHandThumb1 -24.326973 -0.000000 -32.862282
LeftShoulder -12.419937 30.506165 1.508703
LeftArm 72.207750 0.936674 -85.990550
LeftForeArm -26.821977 0.000000 143.416641
LeftHand -5.453479 -0.000000 -4.778324
LeftHandThumb1 -26.253704 0.000000 33.147579
Head 1.113516 20.620484 4.780912
157
root 2.626195 36.977066 3.002328 -2.490241 -9.332948 1.888421
RightUpLeg 9.043831 -1.855979 -4.831245
RightLeg -4.737762 -0.000000 0.000000
RightFoot -11.777126 -13.358043 14.826494
RightToeBase 14.855591 -0.000000 -0.000000
LeftUpLeg 10.138996 6.164763 0.495119
LeftLeg -3.046521 -0.000000 0.000000
LeftFoot -11.382179 15.622402 -17.303657
LeftToeBase 9.330365 -0.000000 -0.000000
Spine 1.101624 -10.966009 -2.181223
RightShoulder 4.756377 -27.561795 -10.769308
RightArm 30.179965 -30.998661 58.439151
RightForeArm 15.026434 -0.000000 30.042657
RightHand 1.794954 0.000000 -0.318456
RightHandThumb1 -24.326973 -0.000000 -32.862282
LeftShoulder -12.491518 30.569718 1.440641
LeftArm 71.904516 0.991545 -85.709202
LeftForeArm -26.966161 0.000000 143.300974
LeftHand -5.546973 0.000000 -4.690847
LeftHandThumb1 -26.253704 0.000000 33.147579
Head 1.276792 20.628949 4.684837
